<?xml version="1.0" encoding="UTF-8" standalone="no"?>
<svg width="8px" height="16px" viewBox="0 0 8 16" version="1.1" xmlns="http://www.w3.org/2000/svg" xmlns:xlink="http://www.w3.org/1999/xlink">
    <!-- Generator: Sketch 40.2 (33826) - http://www.bohemiancoding.com/sketch -->
    <title>manIcon</title>
    <desc>Created with Sketch.</desc>
    <defs></defs>
    <g id="Poligap" stroke="none" stroke-width="1" fill="none" fill-rule="evenodd">
        <g id="Tooltip" transform="translate(-239.000000, -209.000000)" fill="#B8C2CC">
            <g id="Group" transform="translate(31.000000, 30.000000)">
                <g id="Group-2" transform="translate(196.000000, 86.000000)">
                    <g id="Group-8" transform="translate(12.000000, 12.000000)">
                        <g id="manIcon" transform="translate(0.000000, 81.000000)">
                            <ellipse id="Oval" cx="3.7488" cy="1.41617778" rx="1.41617778" ry="1.41617778"></ellipse>
                            <path d="M7.42613333,9.01137778 L7.35982222,8.6992 C7.35733333,8.67875556 7.35733333,8.65795556 7.35306667,8.63697778 L6.39982222,4.15128889 C6.37724444,4.04586667 6.32835556,3.95395556 6.26453333,3.87591111 C6.25564444,3.86346667 6.24426667,3.8512 6.23288889,3.83893333 C6.22435556,3.83022222 6.21671111,3.82062222 6.20764444,3.81244444 C6.18577778,3.79164444 6.15964444,3.77137778 6.13084444,3.75146667 C6.12497778,3.74737778 6.11964444,3.7424 6.11377778,3.73866667 C5.72835556,3.4864 4.81973333,3.30915556 3.76,3.30915556 C2.49297778,3.30915556 1.44462222,3.56266667 1.24515556,3.89457778 C1.18915556,3.96853333 1.14631111,4.0544 1.12586667,4.15128889 L0.172622222,8.63715556 C0.171911111,8.64035556 0.172266667,8.64266667 0.171733333,8.64551111 L0.0940444444,9.01155556 C0.0190222222,9.36355556 0.243733333,9.70986667 0.596266667,9.78488889 C0.948266667,9.85955556 1.2944,9.63484444 1.36942222,9.28284444 L1.91644444,6.7088 L1.91644444,9.63235556 L1.91644444,10.2444444 L1.91644444,10.6270222 L1.91644444,14.2179556 L1.91644444,15.2128 C1.91644444,15.6464 2.26951111,15.9996444 2.70364444,15.9996444 C3.13724444,15.9996444 3.48995556,15.6469333 3.48995556,15.2128 L3.48995556,14.2179556 L3.48995556,10.6270222 L3.48995556,10.2444444 L4.00746667,10.2444444 L4.00746667,10.6270222 L4.00746667,14.2179556 L4.00746667,15.2128 C4.00746667,15.6467556 4.36035556,16 4.79466667,16 C5.22808889,16 5.58115556,15.6469333 5.58115556,15.2128 L5.58115556,14.2179556 L5.58115556,10.6270222 L5.58115556,10.2444444 L5.58115556,9.63271111 L5.58115556,6.6016 L6.15093333,9.28284444 C6.22595556,9.63484444 6.57173333,9.85955556 6.92408889,9.78488889 C7.27626667,9.70968889 7.50097778,9.36355556 7.42613333,9.01137778 L7.42613333,9.01137778 Z" id="Shape"></path>
                        </g>
                    </g>
                </g>
            </g>
        </g>
    </g>
</svg>