<?xml version="1.0" encoding="UTF-8" standalone="no"?>
<svg width="8px" height="16px" viewBox="0 0 8 16" version="1.1" xmlns="http://www.w3.org/2000/svg" xmlns:xlink="http://www.w3.org/1999/xlink">
    <!-- Generator: Sketch 40.2 (33826) - http://www.bohemiancoding.com/sketch -->
    <title>womanIcon</title>
    <desc>Created with Sketch.</desc>
    <defs></defs>
    <g id="Poligap" stroke="none" stroke-width="1" fill="none" fill-rule="evenodd">
        <g id="Tooltip" transform="translate(-317.000000, -209.000000)" fill="#B8C2CC">
            <g id="Group" transform="translate(31.000000, 30.000000)">
                <g id="Group-2" transform="translate(196.000000, 86.000000)">
                    <g id="Group-8" transform="translate(12.000000, 12.000000)">
                        <g id="womanIcon" transform="translate(78.000000, 81.000000)">
                            <ellipse id="Oval" cx="3.98136264" cy="1.40061538" rx="1.40061538" ry="1.40061538"></ellipse>
                            <path d="M7.80712088,8.57969231 L6.30751648,3.96395604 C6.29169231,3.91613187 6.26813187,3.87358242 6.24158242,3.83384615 C6.23771429,3.82734066 6.23279121,3.82101099 6.22821978,3.81468132 C6.17441758,3.74206593 6.10567033,3.68457143 6.02567033,3.64712088 C5.64237363,3.42505495 4.87243956,3.27314286 3.9832967,3.27314286 C3.09503297,3.27314286 2.32562637,3.4247033 1.94232967,3.64641758 C1.85951648,3.68457143 1.78813187,3.74435165 1.73362637,3.81995604 C1.73098901,3.8232967 1.72905495,3.82646154 1.72659341,3.82997802 C1.69881319,3.87076923 1.6741978,3.91454945 1.65784615,3.96413187 L0.158241758,8.57969231 C0.0671648352,8.86030769 0.220483516,9.16149451 0.500923077,9.25204396 C0.781362637,9.34347253 1.0821978,9.1898022 1.17327473,8.90971429 L2.16087912,5.87024176 L1.32782418,10.1556044 C1.26013187,10.5051429 1.48817582,10.8434286 1.83771429,10.9118242 C1.88958242,10.9218462 1.9410989,10.9234286 1.99156044,10.9211429 L1.99156044,10.9218462 L2.28043956,10.9218462 L2.28043956,14.0622418 L2.28043956,15.0461538 C2.28043956,15.474989 2.57986813,15.8243516 2.94769231,15.8243516 C3.31534066,15.8243516 3.61459341,15.4755165 3.61459341,15.0461538 L3.61459341,14.0622418 L3.61459341,10.9213187 L4.34813187,10.9213187 L4.34813187,14.0617143 L4.34813187,15.0456264 C4.34813187,15.4748132 4.64720879,15.8241758 5.01538462,15.8241758 C5.38303297,15.8241758 5.68210989,15.474989 5.68210989,15.0456264 L5.68210989,14.0617143 L5.68210989,10.9213187 L5.97503297,10.9213187 C6.02356044,10.9234286 6.07314286,10.920967 6.12307692,10.9112967 C6.47261538,10.8432527 6.70083516,10.5046154 6.63314286,10.1550769 L5.79340659,5.83578022 L6.79226374,8.90918681 C6.88369231,9.18945055 7.18417582,9.34294505 7.46461538,9.25151648 C7.7447033,9.16114286 7.8981978,8.85995604 7.80712088,8.57969231 L7.80712088,8.57969231 Z" id="Shape"></path>
                        </g>
                    </g>
                </g>
            </g>
        </g>
    </g>
</svg>