<?xml version="1.0" encoding="UTF-8" standalone="no"?>
<svg width="79px" height="88px" viewBox="0 0 79 88" version="1.1" xmlns="http://www.w3.org/2000/svg" xmlns:xlink="http://www.w3.org/1999/xlink">
    <!-- Generator: Sketch 40.2 (33826) - http://www.bohemiancoding.com/sketch -->
    <title>ballot</title>
    <desc>Created with Sketch.</desc>
    <defs>
        <path d="M39.3000967,71.6941107 C39.8881384,71.6941107 40.3663555,71.2066971 40.3663555,70.6073468 C40.3663555,70.0079966 39.8881384,69.520583 39.3000967,69.520583 C38.7120549,69.520583 38.2338378,70.0079966 38.2338378,70.6073468 C38.2338378,71.2066971 38.7120549,71.6941107 39.3000967,71.6941107 Z M39.2846359,54.3058893 C38.0552394,54.3058893 37.0396279,54.712339 36.2665902,55.513284 C35.507947,56.3028179 35.0937055,57.2749281 35.0361275,58.402989 C35.0206667,58.701849 35.2472468,58.9577819 35.5410011,58.97354 C35.861945,58.97354 36.0858593,58.7480365 36.100787,58.4600441 C36.1445036,57.6042176 36.4563843,56.8690218 37.0273659,56.274562 C37.5924831,55.6887963 38.3516594,55.3926532 39.2846359,55.3926532 C40.2874524,55.3926532 41.0567581,55.6849926 41.6362698,56.2865164 C42.2493686,56.9255336 42.4988732,57.5276007 42.4988732,58.366039 C42.4988732,60.0108561 41.5845563,60.584124 40.6158601,61.1910816 C39.7489916,61.7350069 38.7669672,62.351202 38.7669672,63.7406296 L38.7669672,65.7169096 C38.7669672,66.016313 39.0063423,66.2602915 39.3000967,66.2602915 C39.5943841,66.2602915 39.8332261,66.016313 39.8332261,65.7169096 L39.8332261,63.7406296 C39.8332261,62.9581596 40.3962108,62.6049613 41.1745797,62.1170044 C42.1837937,61.4845078 43.5651321,60.6183571 43.5651321,58.366039 C43.5651321,57.2281973 43.2159323,56.3788914 42.3975786,55.5257817 C41.6176103,54.7166861 40.570011,54.3058893 39.2846359,54.3058893 Z" id="path-1"></path>
        <mask id="mask-2" maskContentUnits="userSpaceOnUse" maskUnits="objectBoundingBox" x="-1" y="-1" width="10.5297511" height="19.3882213">
            <rect x="34.035381" y="53.3058893" width="10.5297511" height="19.3882213" fill="white"></rect>
            <use xlink:href="#path-1" fill="black"></use>
        </mask>
        <circle id="path-3" cx="39" cy="63" r="16"></circle>
        <mask id="mask-4" maskContentUnits="userSpaceOnUse" maskUnits="objectBoundingBox" x="0" y="0" width="32" height="32" fill="white">
            <use xlink:href="#path-3"></use>
        </mask>
    </defs>
    <g id="Poligap" stroke="none" stroke-width="1" fill="none" fill-rule="evenodd">
        <g id="Home-04-768-Spec-@2x" transform="translate(-593.000000, -1041.000000)">
            <g id="ballot" transform="translate(593.000000, 1041.000000)">
                <path d="M72.8483607,87.450817 L5.82786885,87.450817 C2.61379918,87.450817 0,84.8363426 0,81.6214426 L0,40.815822 C0,39.6892954 0.266625,38.5627688 0.769278689,37.5557444 L7.68695902,23.7153523 C8.68061066,21.728993 10.6781127,20.4931656 12.8999877,20.4931656 L20.397541,20.4931656 L20.397541,1.45734359 C20.397541,0.651432586 21.0502623,0 21.8545082,0 L56.8217213,0 C57.6259672,0 58.2786885,0.651432586 58.2786885,1.45734359 L58.2786885,20.4931656 L65.7762418,20.4931656 C67.9981168,20.4931656 69.9941619,21.728993 70.9892705,23.7153523 L77.9069508,37.5557444 C78.4096045,38.5627688 78.6762295,39.6892954 78.6762295,40.815822 L78.6762295,81.6214426 C78.6762295,84.8363426 76.0624303,87.450817 72.8483607,87.450817 L72.8483607,87.450817 Z M55.3647541,2.91468719 L23.3114754,2.91468719 L23.3114754,29.1468719 L55.3647541,29.1468719 L55.3647541,2.91468719 L55.3647541,2.91468719 Z M68.3812992,25.0196748 C67.8859303,24.0257665 66.8864508,23.4078528 65.7762418,23.4078528 L58.2786885,23.4078528 L58.2786885,29.1468719 L64.1065574,29.1468719 C64.9108033,29.1468719 65.5635246,29.7983044 65.5635246,30.6042155 C65.5635246,31.4101265 64.9108033,32.061559 64.1065574,32.061559 L56.8217213,32.061559 L21.8545082,32.061559 L14.5696721,32.061559 C13.7654262,32.061559 13.1127049,31.4101265 13.1127049,30.6042155 C13.1127049,29.7983044 13.7654262,29.1468719 14.5696721,29.1468719 L20.397541,29.1468719 L20.397541,23.4078528 L12.8999877,23.4078528 C11.7897787,23.4078528 10.7902992,24.0257665 10.2934734,25.0196748 L3.85950615,37.8909334 L74.8167234,37.8909334 L68.3812992,25.0196748 L68.3812992,25.0196748 Z M75.7622951,40.815822 C75.7622951,40.81145 75.7608381,40.8085353 75.7608381,40.8056206 L2.91539139,40.8056206 C2.91539139,40.8085353 2.91393443,40.81145 2.91393443,40.815822 L2.91393443,81.6214426 C2.91393443,83.2274353 4.22083402,84.5361298 5.82786885,84.5361298 L72.8483607,84.5361298 C74.4553955,84.5361298 75.7622951,83.2274353 75.7622951,81.6214426 L75.7622951,40.815822 L75.7622951,40.815822 Z M27.682377,5.82937437 L33.5102459,5.82937437 C34.3144918,5.82937437 34.9672131,6.48080696 34.9672131,7.28671797 L34.9672131,13.1160923 C34.9672131,13.9220033 34.3144918,14.5734359 33.5102459,14.5734359 L27.682377,14.5734359 C26.8781311,14.5734359 26.2254098,13.9220033 26.2254098,13.1160923 L26.2254098,7.28671797 C26.2254098,6.48080696 26.8781311,5.82937437 27.682377,5.82937437 L27.682377,5.82937437 Z M29.1393443,11.6587487 L32.0532787,11.6587487 L32.0532787,8.74406156 L29.1393443,8.74406156 L29.1393443,11.6587487 L29.1393443,11.6587487 Z M27.682377,17.4881231 L33.5102459,17.4881231 C34.3144918,17.4881231 34.9672131,18.1395557 34.9672131,18.9454667 L34.9672131,24.7748411 C34.9672131,25.5807521 34.3144918,26.2321847 33.5102459,26.2321847 L27.682377,26.2321847 C26.8781311,26.2321847 26.2254098,25.5807521 26.2254098,24.7748411 L26.2254098,18.9454667 C26.2254098,18.1395557 26.8781311,17.4881231 27.682377,17.4881231 L27.682377,17.4881231 Z M29.1393443,23.3174975 L32.0532787,23.3174975 L32.0532787,20.4028103 L29.1393443,20.4028103 L29.1393443,23.3174975 L29.1393443,23.3174975 Z M39.3381148,8.78486718 L50.9938525,8.78486718 C51.7980984,8.78486718 52.4508197,9.43629977 52.4508197,10.2422108 C52.4508197,11.0466644 51.7980984,11.6995544 50.9938525,11.6995544 L39.3381148,11.6995544 C38.5338689,11.6995544 37.8811475,11.0466644 37.8811475,10.2422108 C37.8811475,9.43629977 38.5338689,8.78486718 39.3381148,8.78486718 L39.3381148,8.78486718 Z M39.3381148,20.4028103 L50.9938525,20.4028103 C51.7980984,20.4028103 52.4508197,21.0542429 52.4508197,21.8601539 C52.4508197,22.6660649 51.7980984,23.3174975 50.9938525,23.3174975 L39.3381148,23.3174975 C38.5338689,23.3174975 37.8811475,22.6660649 37.8811475,21.8601539 C37.8811475,21.0542429 38.5338689,20.4028103 39.3381148,20.4028103 L39.3381148,20.4028103 Z" id="Shape" fill="#B8C2CC"></path>
                <path d="M39.297485,79 C30.6417869,79 23.5999756,71.8221538 23.5999756,63 C23.5999756,54.1778462 30.6417869,47 39.297485,47 C47.9537869,47 54.9955982,54.1778462 54.9955982,63 C54.9955982,71.8221538 47.9537869,79 39.297485,79 L39.297485,79 Z M39.3000755,48.2307692 C31.3103396,48.2307692 24.8101132,54.8566154 24.8101132,63 C24.8101132,71.1433846 31.3103396,77.7692308 39.3000755,77.7692308 C47.2898113,77.7692308 53.7906415,71.1433846 53.7906415,63 C53.7906415,54.8566154 47.2898113,48.2307692 39.3000755,48.2307692 L39.3000755,48.2307692 Z" id="Shape" fill="#B8C2CC"></path>
                <g id="Combined-Shape">
                    <use fill="#B8C2CC" fill-rule="evenodd" xlink:href="#path-1"></use>
                    <use stroke="#B8C2CC" mask="url(#mask-2)" stroke-width="2" xlink:href="#path-1"></use>
                </g>
                <use id="Oval-2" stroke="#B8C2CC" mask="url(#mask-4)" stroke-width="6" xlink:href="#path-3"></use>
            </g>
        </g>
    </g>
</svg>