<?xml version="1.0" encoding="UTF-8" standalone="no"?>
<svg width="79px" height="88px" viewBox="0 0 79 88" version="1.1" xmlns="http://www.w3.org/2000/svg" xmlns:xlink="http://www.w3.org/1999/xlink">
    <!-- Generator: Sketch 40.2 (33826) - http://www.bohemiancoding.com/sketch -->
    <title>ballot</title>
    <desc>Created with Sketch.</desc>
    <defs></defs>
    <g id="Poligap" stroke="none" stroke-width="1" fill="none" fill-rule="evenodd">
        <g id="Home-04-768-Spec-@2x" transform="translate(-593.000000, -1041.000000)" fill="#B8C2CC">
            <g id="Group-8" transform="translate(246.000000, 1040.000000)">
                <g id="ballot" transform="translate(342.000000, 0.000000)">
                    <path d="M77.8483607,88.450817 L10.8278689,88.450817 C7.61379918,88.450817 5,85.8363426 5,82.6214426 L5,41.815822 C5,40.6892954 5.266625,39.5627688 5.76927869,38.5557444 L12.686959,24.7153523 C13.6806107,22.728993 15.6781127,21.4931656 17.8999877,21.4931656 L25.397541,21.4931656 L25.397541,2.45734359 C25.397541,1.65143259 26.0502623,1 26.8545082,1 L61.8217213,1 C62.6259672,1 63.2786885,1.65143259 63.2786885,2.45734359 L63.2786885,21.4931656 L70.7762418,21.4931656 C72.9981168,21.4931656 74.9941619,22.728993 75.9892705,24.7153523 L82.9069508,38.5557444 C83.4096045,39.5627688 83.6762295,40.6892954 83.6762295,41.815822 L83.6762295,82.6214426 C83.6762295,85.8363426 81.0624303,88.450817 77.8483607,88.450817 L77.8483607,88.450817 Z M60.3647541,3.91468719 L28.3114754,3.91468719 L28.3114754,30.1468719 L60.3647541,30.1468719 L60.3647541,3.91468719 L60.3647541,3.91468719 Z M73.3812992,26.0196748 C72.8859303,25.0257665 71.8864508,24.4078528 70.7762418,24.4078528 L63.2786885,24.4078528 L63.2786885,30.1468719 L69.1065574,30.1468719 C69.9108033,30.1468719 70.5635246,30.7983044 70.5635246,31.6042155 C70.5635246,32.4101265 69.9108033,33.061559 69.1065574,33.061559 L61.8217213,33.061559 L26.8545082,33.061559 L19.5696721,33.061559 C18.7654262,33.061559 18.1127049,32.4101265 18.1127049,31.6042155 C18.1127049,30.7983044 18.7654262,30.1468719 19.5696721,30.1468719 L25.397541,30.1468719 L25.397541,24.4078528 L17.8999877,24.4078528 C16.7897787,24.4078528 15.7902992,25.0257665 15.2934734,26.0196748 L8.85950615,38.8909334 L79.8167234,38.8909334 L73.3812992,26.0196748 L73.3812992,26.0196748 Z M80.7622951,41.815822 C80.7622951,41.81145 80.7608381,41.8085353 80.7608381,41.8056206 L7.91539139,41.8056206 C7.91539139,41.8085353 7.91393443,41.81145 7.91393443,41.815822 L7.91393443,82.6214426 C7.91393443,84.2274353 9.22083402,85.5361298 10.8278689,85.5361298 L77.8483607,85.5361298 C79.4553955,85.5361298 80.7622951,84.2274353 80.7622951,82.6214426 L80.7622951,41.815822 L80.7622951,41.815822 Z M32.682377,6.82937437 L38.5102459,6.82937437 C39.3144918,6.82937437 39.9672131,7.48080696 39.9672131,8.28671797 L39.9672131,14.1160923 C39.9672131,14.9220033 39.3144918,15.5734359 38.5102459,15.5734359 L32.682377,15.5734359 C31.8781311,15.5734359 31.2254098,14.9220033 31.2254098,14.1160923 L31.2254098,8.28671797 C31.2254098,7.48080696 31.8781311,6.82937437 32.682377,6.82937437 L32.682377,6.82937437 Z M34.1393443,12.6587487 L37.0532787,12.6587487 L37.0532787,9.74406156 L34.1393443,9.74406156 L34.1393443,12.6587487 L34.1393443,12.6587487 Z M32.682377,18.4881231 L38.5102459,18.4881231 C39.3144918,18.4881231 39.9672131,19.1395557 39.9672131,19.9454667 L39.9672131,25.7748411 C39.9672131,26.5807521 39.3144918,27.2321847 38.5102459,27.2321847 L32.682377,27.2321847 C31.8781311,27.2321847 31.2254098,26.5807521 31.2254098,25.7748411 L31.2254098,19.9454667 C31.2254098,19.1395557 31.8781311,18.4881231 32.682377,18.4881231 L32.682377,18.4881231 Z M34.1393443,24.3174975 L37.0532787,24.3174975 L37.0532787,21.4028103 L34.1393443,21.4028103 L34.1393443,24.3174975 L34.1393443,24.3174975 Z M44.3381148,9.78486718 L55.9938525,9.78486718 C56.7980984,9.78486718 57.4508197,10.4362998 57.4508197,11.2422108 C57.4508197,12.0466644 56.7980984,12.6995544 55.9938525,12.6995544 L44.3381148,12.6995544 C43.5338689,12.6995544 42.8811475,12.0466644 42.8811475,11.2422108 C42.8811475,10.4362998 43.5338689,9.78486718 44.3381148,9.78486718 L44.3381148,9.78486718 Z M44.3381148,21.4028103 L55.9938525,21.4028103 C56.7980984,21.4028103 57.4508197,22.0542429 57.4508197,22.8601539 C57.4508197,23.6660649 56.7980984,24.3174975 55.9938525,24.3174975 L44.3381148,24.3174975 C43.5338689,24.3174975 42.8811475,23.6660649 42.8811475,22.8601539 C42.8811475,22.0542429 43.5338689,21.4028103 44.3381148,21.4028103 L44.3381148,21.4028103 Z" id="Shape"></path>
                </g>
            </g>
        </g>
    </g>
</svg>