<svg width="177" height="33" viewBox="0 0 177 33" xmlns="http://www.w3.org/2000/svg"><title>bigPoligap</title><g fill="#8A9199" fill-rule="evenodd"><path d="M20 5h23v5H20zM20 15h23v5H20zM0 25h43v5H0zM0 5h15v15H0zM70.667 11.982c-.638-1.084-1.672-1.626-3.102-1.626-1.718 0-2.9.821-3.542 2.464-.333.871-.5 1.977-.5 3.318 0 2.122.56 3.614 1.68 4.474.666.503 1.453.754 2.362.754 1.32 0 2.326-.514 3.019-1.542.693-1.027 1.04-2.396 1.04-4.105 0-1.408-.32-2.653-.957-3.737zm3.642-3.436c1.47 1.576 2.204 3.888 2.204 6.938 0 3.218-.718 5.67-2.154 7.357-1.436 1.687-3.285 2.53-5.547 2.53-1.44 0-2.638-.363-3.592-1.089-.521-.402-1.031-.989-1.53-1.76v9.519H59V6.586h4.54v2.698c.51-.793 1.054-1.419 1.63-1.877 1.054-.816 2.306-1.223 3.759-1.223 2.118 0 3.911.787 5.38 2.362zm16.956 11.446c.743-.994 1.114-2.407 1.114-4.24 0-1.832-.371-3.242-1.114-4.231-.743-.989-1.808-1.483-3.193-1.483-1.386 0-2.454.494-3.202 1.483-.748.989-1.123 2.4-1.123 4.231 0 1.833.375 3.246 1.123 4.24.748.994 1.816 1.492 3.202 1.492 1.385 0 2.45-.498 3.193-1.492zm3.792 2.64c-1.53 1.904-3.853 2.857-6.969 2.857-3.115 0-5.438-.953-6.968-2.858-1.53-1.904-2.295-4.197-2.295-6.879 0-2.636.765-4.92 2.295-6.854C82.65 6.966 84.973 6 88.088 6c3.116 0 5.439.967 6.969 2.9 1.53 1.932 2.295 4.217 2.295 6.853 0 2.682-.765 4.975-2.295 6.88zm10.527 2.22h-4.74V.15h4.74v24.7zm9.497-20.445h-4.807V0h4.807v4.407zm-4.807 2.179h4.807v18.266h-4.807V6.586zm19.991 13.08c.765-.844 1.148-2.188 1.148-4.031 0-1.732-.363-3.05-1.09-3.955-.726-.905-1.699-1.357-2.918-1.357-1.664 0-2.811.787-3.443 2.363-.333.838-.5 1.87-.5 3.1 0 1.061.178 2.005.533 2.832.643 1.542 1.796 2.313 3.46 2.313 1.108 0 2.045-.422 2.81-1.266zm-1.613-13.097c1.153.48 2.084 1.363 2.794 2.648V6.586h4.607v17.327c0 2.358-.394 4.134-1.181 5.33-1.353 2.055-3.947 3.083-7.783 3.083-2.318 0-4.208-.458-5.672-1.374-1.463-.916-2.273-2.285-2.428-4.106h5.156c.133.559.35.96.648 1.207.51.435 1.37.653 2.578.653 1.708 0 2.85-.575 3.426-1.726.377-.737.566-1.977.566-3.72v-1.173c-.455.782-.943 1.368-1.464 1.76-.942.726-2.167 1.089-3.675 1.089-2.329 0-4.189-.824-5.58-2.472-1.392-1.648-2.087-3.88-2.087-6.695 0-2.715.67-4.997 2.012-6.845 1.342-1.85 3.243-2.774 5.705-2.774.909 0 1.702.14 2.378.42zm21.82 9.401c-.3.19-.601.344-.906.461-.305.117-.724.226-1.256.327l-1.064.2c-.998.18-1.713.398-2.146.654-.732.436-1.097 1.112-1.097 2.028 0 .816.224 1.405.673 1.768.45.363.995.545 1.638.545 1.02 0 1.96-.302 2.82-.905.859-.603 1.305-1.704 1.338-3.301V15.97zm-2.877-2.229c.876-.111 1.502-.251 1.88-.419.676-.29 1.014-.742 1.014-1.357 0-.748-.258-1.265-.774-1.55-.515-.285-1.272-.427-2.27-.427-1.12 0-1.912.279-2.378.838-.333.413-.554.971-.665 1.675h-4.574c.1-1.597.543-2.91 1.33-3.938 1.254-1.609 3.404-2.413 6.454-2.413 1.984 0 3.747.397 5.288 1.19 1.542.793 2.312 2.29 2.312 4.491v8.379c0 .58.011 1.285.033 2.111.034.626.128 1.05.283 1.274.155.223.388.408.699.553v.704h-5.156a5.35 5.35 0 0 1-.3-1.04c-.055-.323-.1-.692-.133-1.105a9.752 9.752 0 0 1-2.261 1.826c-1.02.593-2.174.889-3.46.889-1.64 0-2.996-.472-4.066-1.416-1.07-.944-1.605-2.282-1.605-4.014 0-2.245.86-3.871 2.578-4.876.942-.548 2.328-.939 4.158-1.173l1.613-.202zm23.359-1.76c-.638-1.083-1.672-1.625-3.102-1.625-1.719 0-2.9.821-3.543 2.464-.332.871-.499 1.977-.499 3.318 0 2.122.56 3.614 1.68 4.474.665.503 1.453.754 2.362.754 1.32 0 2.325-.514 3.018-1.542.693-1.027 1.04-2.396 1.04-4.105 0-1.408-.319-2.653-.956-3.737zm3.642-3.435c1.469 1.576 2.204 3.888 2.204 6.938 0 3.218-.718 5.67-2.154 7.357-1.436 1.687-3.285 2.53-5.547 2.53-1.441 0-2.639-.363-3.592-1.089-.521-.402-1.031-.989-1.53-1.76v9.519h-4.69V6.586h4.54v2.698c.51-.793 1.053-1.419 1.63-1.877 1.053-.816 2.306-1.223 3.759-1.223 2.117 0 3.91.787 5.38 2.362z"/></g></svg>