<?xml version="1.0" encoding="UTF-8" standalone="no"?>
<svg width="32px" height="32px" viewBox="0 0 32 32" version="1.1" xmlns="http://www.w3.org/2000/svg" xmlns:xlink="http://www.w3.org/1999/xlink">
    <!-- Generator: Sketch 40.2 (33826) - http://www.bohemiancoding.com/sketch -->
    <title>githubIcon</title>
    <desc>Created with Sketch.</desc>
    <defs></defs>
    <g id="Poligap" stroke="none" stroke-width="1" fill="none" fill-rule="evenodd">
        <g id="Home-04-768-Spec-@2x" transform="translate(-646.000000, -2107.000000)" fill="#FFFFFF">
            <path d="M678,2123 C678,2131.836 670.836,2139 662.000667,2139 C653.164,2139 646,2131.836 646,2123 C646,2114.16267 653.164,2107 662.000667,2107 C670.836,2107 678,2114.16267 678,2123 Z M654.910133,2122.82487 C654.8788,2122.82487 655.2528,2123.62887 655.2628,2123.62887 C656.0788,2125.10887 657.6508,2126.02953 660.303467,2126.28287 C659.924133,2126.5702 659.470133,2127.1162 659.4068,2127.7462 C658.9308,2128.05353 657.974133,2128.15487 657.229467,2127.92087 C656.1868,2127.59087 655.787467,2125.5282 654.2268,2125.8222 C653.8888,2125.88553 653.955467,2126.10887 654.248133,2126.2982 C654.724133,2126.60553 655.172133,2126.99087 655.5168,2127.81087 C655.7828,2128.43953 656.3408,2129.5642 658.1048,2129.5642 C658.804133,2129.5642 659.2948,2129.47953 659.2948,2129.47953 C659.2948,2129.47953 659.308133,2131.08687 659.308133,2131.71087 C659.308133,2132.4322 658.335467,2132.63487 658.335467,2132.98087 C658.335467,2133.1182 658.657467,2133.13087 658.916133,2133.13087 C659.4268,2133.13087 660.4908,2132.7042 660.4908,2131.95553 C660.4908,2131.36153 660.5008,2129.36087 660.5008,2129.01087 C660.5008,2128.24687 660.9108,2128.0042 660.9108,2128.0042 C660.9108,2128.0042 660.961467,2132.08753 660.8128,2132.63487 C660.6388,2133.2782 660.3228,2133.18687 660.3228,2133.4742 C660.3228,2133.90153 661.604133,2133.5782 662.0288,2132.64153 C662.3568,2131.91153 662.2128,2127.90553 662.2128,2127.90553 L662.5628,2127.8982 C662.5628,2127.8982 662.5828,2129.73153 662.5708,2130.57087 C662.5588,2131.43887 662.499467,2132.5362 663.0148,2133.0542 C663.354133,2133.3942 664.452133,2133.9922 664.452133,2133.4462 C664.452133,2133.12887 663.850133,2132.8682 663.850133,2132.0102 L663.850133,2128.06087 C664.331467,2128.06087 664.2588,2129.35887 664.2588,2129.35887 L664.293467,2131.7722 C664.293467,2131.7722 664.188133,2132.65153 665.246133,2133.01887 C665.6188,2133.1502 666.4168,2133.1842 666.454133,2132.9662 C666.492133,2132.74687 665.493467,2132.42087 665.484133,2131.73887 C665.478133,2131.3242 665.5028,2131.0822 665.5028,2129.27753 C665.5028,2127.4722 665.260133,2126.80553 664.4148,2126.27353 C667.022133,2126.0062 668.6368,2125.36153 669.423467,2123.63487 C669.484133,2123.6362 669.743467,2122.8282 669.709467,2122.8282 C669.886133,2122.1762 669.982133,2121.40487 670.000133,2120.4922 C669.995467,2118.01487 668.810133,2117.13953 668.5828,2116.7282 C668.918133,2114.85287 668.526133,2114.00087 668.343467,2113.70753 C667.672133,2113.46887 666.0068,2114.3222 665.096133,2114.92287 C663.613467,2114.4902 660.477467,2114.53153 659.301467,2115.03487 C657.131467,2113.48153 655.983467,2113.7202 655.983467,2113.7202 C655.983467,2113.7202 655.241467,2115.04887 655.787467,2116.99353 C655.073467,2117.90353 654.541467,2118.5462 654.541467,2120.2522 C654.542133,2121.2142 654.655467,2122.0742 654.910133,2122.82487 Z" id="githubIcon"></path>
        </g>
    </g>
</svg>