<?xml version="1.0" encoding="UTF-8"?>
<svg width="315px" height="400px" viewBox="0 0 315 400" version="1.1" xmlns="http://www.w3.org/2000/svg" xmlns:xlink="http://www.w3.org/1999/xlink">
    <!-- Generator: Sketch 42 (36781) - http://www.bohemiancoding.com/sketch -->
    <title>icon-M</title>
    <desc>Created with Sketch.</desc>
    <defs>
        <rect id="path-1" x="0" y="0" width="315" height="400"></rect>
        <circle id="path-3" cx="205" cy="205" r="205"></circle>
    </defs>
    <g id="Page-1" stroke="none" stroke-width="1" fill="none" fill-rule="evenodd">
        <g id="icon-M">
            <g id="Page-1">
                <mask id="mask-2" fill="white">
                    <use xlink:href="#path-1"></use>
                </mask>
                <use id="Mask" fill="#D8D8D8" xlink:href="#path-1"></use>
                <g mask="url(#mask-2)" id="icon-male">
                    <g transform="translate(-48.000000, -10.000000)">
                        <g>
                            <g id="Oval" fill-rule="nonzero" fill="#D8D8D8">
                                <circle id="path-1" cx="205" cy="205" r="205"></circle>
                            </g>
                            <g id="Shape-Clipped">
                                <mask id="mask-4" fill="white">
                                    <use xlink:href="#path-3"></use>
                                </mask>
                                <use id="path-1" fill="#D8D8D8" xlink:href="#path-3"></use>
                                <path d="M342.008337,361.41663 C342.009202,343.107865 331.332059,326.370442 314.42936,318.184004 L255.017005,289.402428 C247.339816,285.682301 242.490426,278.079393 242.490154,269.76274 L242.490154,247.176193 C244.157083,245.338175 246.072808,242.969841 248.112932,240.173641 C256.130228,229.135747 262.357851,216.974685 266.579773,204.112304 C274.199135,201.840392 279.809472,195.018627 279.809472,186.913263 L279.809472,162.808091 C279.809472,157.504954 277.377497,152.762261 273.589586,149.447801 L273.589586,114.597748 C273.589586,114.597748 280.972591,60.3611111 205.170836,60.3611111 C129.362859,60.3611111 136.752084,114.597748 136.752084,114.597748 L136.752084,149.447801 C132.964173,152.762261 130.532198,157.504954 130.532198,162.808091 L130.532198,186.913263 C130.553183,193.057021 133.793084,198.769974 139.134301,202.081443 C145.347967,228.30787 161.63163,247.176193 161.63163,247.176193 L161.63163,269.202294 C161.63163,277.235343 157.103553,284.629604 149.820066,288.474379 L94.3324587,317.804348 C78.3053581,326.273179 68.333191,342.547968 68.3333333,360.235477 L68.3333333,379.754639 C68.3333333,396.393234 129.599215,409.886104 205.170836,409.886104 C280.742456,409.886104 342.008337,396.393234 342.008337,379.754639 L342.008337,361.41663 Z" id="Shape" fill="#BBBBBB" fill-rule="nonzero" mask="url(#mask-4)"></path>
                            </g>
                        </g>
                    </g>
                </g>
            </g>
        </g>
    </g>
</svg>