<?xml version="1.0" encoding="UTF-8"?>
<svg width="315px" height="400px" viewBox="0 0 315 400" version="1.1" xmlns="http://www.w3.org/2000/svg" xmlns:xlink="http://www.w3.org/1999/xlink">
    <!-- Generator: Sketch 42 (36781) - http://www.bohemiancoding.com/sketch -->
    <title>icon-F</title>
    <desc>Created with Sketch.</desc>
    <defs>
        <rect id="path-1" x="0" y="0" width="315" height="400"></rect>
        <circle id="path-3" cx="205.5" cy="205.5" r="205.5"></circle>
    </defs>
    <g id="Page-1" stroke="none" stroke-width="1" fill="none" fill-rule="evenodd">
        <g id="icon-F">
            <g id="icon-female">
                <mask id="mask-2" fill="white">
                    <use xlink:href="#path-1"></use>
                </mask>
                <use id="Mask" fill="#D8D8D8" xlink:href="#path-1"></use>
                <g mask="url(#mask-2)" id="Page-1">
                    <g transform="translate(-48.000000, -10.000000)">
                        <g>
                            <g id="icon-female">
                                <g id="Oval" fill-rule="nonzero" fill="#D8D8D8">
                                    <circle id="path-1" cx="205.5" cy="205.5" r="205.5"></circle>
                                </g>
                                <g id="Shape-Clipped">
                                    <mask id="mask-4" fill="white">
                                        <use xlink:href="#path-3"></use>
                                    </mask>
                                    <g id="path-1"></g>
                                    <path d="M323.20584,368.339125 C323.206585,349.985704 314.026699,333.207459 299.494268,325.001054 L240.525504,296.14928 C237.30086,294.3249 234.669806,290.452625 232.819511,286.242054 C231.156386,282.448312 233.6484,277.984018 237.397117,277.984018 L278.927127,277.984018 C278.927127,277.984018 294.157294,279.633209 305.900778,273.936554 C312.777883,270.595887 315.152248,260.845727 310.847374,253.92275 C298.264304,233.691471 272.26393,186.058255 271.418998,136.85438 C271.418998,136.85438 269.975127,61.1245145 203.835137,60.5083333 C165.251694,60.8707929 147.026832,86.5208417 138.540079,107.8395 C133.80739,119.734212 131.775276,132.698179 131.015906,145.710474 C128.272551,192.606689 107.133209,236.881114 97.2827999,255.209482 C93.9405058,261.425662 95.5555023,269.707861 101.084994,273.435152 C110.143948,279.554676 121.229669,277.984018 121.229669,277.984018 L163.738303,277.984018 C167.882748,277.984018 169.711651,283.89815 166.460267,286.797825 C163.807822,289.159853 161.278374,291.298363 159.909371,292.138061 L110.261597,324.620471 C96.4819793,333.109958 87.9082109,349.424444 87.9083333,367.155091 L87.9083333,380.68087 C87.9083333,397.360047 140.582889,410.885826 205.557087,410.885826 C270.531284,410.885826 323.20584,397.360047 323.20584,380.68087 L323.20584,368.339125 Z" id="Shape" fill="#BBBBBB" fill-rule="nonzero" mask="url(#mask-4)"></path>
                                </g>
                            </g>
                        </g>
                    </g>
                </g>
            </g>
        </g>
    </g>
</svg>