<?xml version="1.0" encoding="UTF-8" standalone="no"?>
<svg width="32px" height="32px" viewBox="0 0 32 32" version="1.1" xmlns="http://www.w3.org/2000/svg" xmlns:xlink="http://www.w3.org/1999/xlink">
    <!-- Generator: Sketch 40.2 (33826) - http://www.bohemiancoding.com/sketch -->
    <title>instaIcon</title>
    <desc>Created with Sketch.</desc>
    <defs></defs>
    <g id="Poligap" stroke="none" stroke-width="1" fill="none" fill-rule="evenodd">
        <g id="Home-04-768-Spec-@2x" transform="translate(-582.000000, -2107.000000)" fill="#FFFFFF">
            <g id="instaIcon" transform="translate(582.000000, 2107.000000)">
                <path d="M16.0006667,32 C7.164,32 0,24.836 0,16 C0,7.16266667 7.164,0 16.0006667,0 C24.836,0 32,7.16266667 32,16 C32,24.836 24.836,32 16.0006667,32 Z M22.1340667,6.00006667 L9.86473333,6.00006667 C7.73273333,6.00006667 6.00006667,7.73273333 6.00006667,9.86473333 L6.00006667,13.9480667 L6.00006667,22.1354 C6.00006667,24.2667333 7.73273333,26.0000667 9.86473333,26.0000667 L22.1340667,26.0000667 C24.2654,26.0000667 26.0000667,24.2667333 26.0000667,22.1354 L26.0000667,13.9480667 L26.0000667,9.86473333 C26.0000667,7.73273333 24.2654,6.00006667 22.1340667,6.00006667 Z" id="Combined-Shape"></path>
                <path d="M24.0520667,22.1354 C24.0520667,23.1927333 23.1914,24.0520667 22.1340667,24.0520667 L9.86473333,24.0520667 C8.8074,24.0520667 7.94806667,23.1927333 7.94806667,22.1354 L7.94806667,13.9480667 L10.9334,13.9480667 C10.6760667,14.5820667 10.5314,15.2747333 10.5314,16.0000667 C10.5314,19.0154 12.9840667,21.4687333 16.0000667,21.4687333 C19.0154,21.4687333 21.4687333,19.0154 21.4687333,16.0000667 C21.4687333,15.2747333 21.3227333,14.5820667 21.0654,13.9480667 L24.0520667,13.9480667 L24.0520667,22.1354 Z" id="Path"></path>
                <path d="M13.1460667,13.9480667 C13.7867333,13.0614 14.8254,12.4807333 16.0000667,12.4807333 C17.1747333,12.4807333 18.2134,13.0614 18.8540667,13.9480667 C19.2707333,14.5260667 19.5207333,15.2340667 19.5207333,16.0000667 C19.5207333,17.9400667 17.9400667,19.5194 16.0000667,19.5194 C14.0587333,19.5194 12.4794,17.9400667 12.4794,16.0000667 C12.4794,15.2340667 12.7294,14.5260667 13.1460667,13.9480667 L13.1460667,13.9480667 Z" id="Path"></path>
                <polygon id="Path" points="23.2434 8.30606667 23.6847333 8.3034 23.6847333 8.74473333 23.6847333 11.6927333 20.3074 11.7047333 20.2954 8.3154"></polygon>
            </g>
        </g>
    </g>
</svg>