<?xml version="1.0" encoding="UTF-8" standalone="no"?>
<svg width="88px" height="68px" viewBox="0 0 88 68" version="1.1" xmlns="http://www.w3.org/2000/svg" xmlns:xlink="http://www.w3.org/1999/xlink">
    <!-- Generator: Sketch 40.2 (33826) - http://www.bohemiancoding.com/sketch -->
    <title>moneyIcon</title>
    <desc>Created with Sketch.</desc>
    <defs></defs>
    <g id="Poligap" stroke="none" stroke-width="1" fill="none" fill-rule="evenodd">
        <g id="Home-04-768-Spec-@2x" transform="translate(-875.000000, -1055.000000)" fill="#B8C2CC">
            <g id="moneyIcon" transform="translate(875.000000, 1044.000000)">
                <path d="M86.5333333,78.520666 L52.8,78.520666 L35.2,78.520666 L1.46666667,78.520666 C0.6556,78.520666 0,77.8645698 0,77.0528893 L0,71.1817823 L0,65.3106753 L0,59.4395683 L0,12.4707123 C0,11.6590318 0.6556,11.0029356 1.46666667,11.0029356 L35.2,11.0029356 L52.8,11.0029356 L86.5333333,11.0029356 C87.3444,11.0029356 88,11.6590318 88,12.4707123 L88,59.4395683 L88,65.3106753 L88,71.1817823 L88,77.0528893 C88,77.8645698 87.3444,78.520666 86.5333333,78.520666 L86.5333333,78.520666 Z M33.7333333,28.1920691 C32.7814667,30.5507863 32.2666667,33.2177367 32.2666667,35.9551403 C32.2666667,38.6925439 32.7814667,41.3594943 33.7333333,43.7182115 L33.7333333,28.1920691 L33.7333333,28.1920691 Z M33.7333333,49.5452852 C30.9408,45.9683133 29.3333333,41.0615356 29.3333333,35.9551403 C29.3333333,30.848745 30.9408,25.9419673 33.7333333,22.3635276 L33.7333333,19.8095961 L14.5185333,19.8095961 C13.9348,22.6805674 11.6688,24.9482825 8.8,25.5324576 L8.8,46.377823 C11.6688,46.9619981 13.9348,49.2297132 14.5185333,52.1006846 L33.7333333,52.1006846 L33.7333333,49.5452852 L33.7333333,49.5452852 Z M33.7333333,55.0362381 L13.2,55.0362381 C12.3889333,55.0362381 11.7333333,54.3801418 11.7333333,53.5684613 C11.7333333,51.1407586 9.7592,49.1651311 7.33333333,49.1651311 C6.52226667,49.1651311 5.86666667,48.5090348 5.86666667,47.6973543 L5.86666667,24.2129263 C5.86666667,23.4012458 6.52226667,22.7451496 7.33333333,22.7451496 C9.7592,22.7451496 11.7333333,20.769522 11.7333333,18.3418193 C11.7333333,17.5301388 12.3889333,16.8740426 13.2,16.8740426 L33.7333333,16.8740426 L33.7333333,13.9384891 L2.93333333,13.9384891 L2.93333333,57.9717916 L33.7333333,57.9717916 L33.7333333,55.0362381 L33.7333333,55.0362381 Z M33.7333333,60.9073451 L2.93333333,60.9073451 L2.93333333,63.8428986 L33.7333333,63.8428986 L33.7333333,60.9073451 L33.7333333,60.9073451 Z M33.7333333,66.7784521 L2.93333333,66.7784521 L2.93333333,69.7140056 L33.7333333,69.7140056 L33.7333333,66.7784521 L33.7333333,66.7784521 Z M33.7333333,72.6495591 L2.93333333,72.6495591 L2.93333333,75.5851126 L33.7333333,75.5851126 L33.7333333,72.6495591 L33.7333333,72.6495591 Z M51.3333333,49.0579833 L51.3333333,22.8522973 L51.3333333,13.9384891 L36.6666667,13.9384891 L36.6666667,22.8522973 L36.6666667,49.0579833 L36.6666667,57.9717916 L51.3333333,57.9717916 L51.3333333,49.0579833 L51.3333333,49.0579833 Z M51.3333333,60.9073451 L36.6666667,60.9073451 L36.6666667,75.5851126 L51.3333333,75.5851126 L51.3333333,60.9073451 L51.3333333,60.9073451 Z M54.2666667,43.7182115 C55.2185333,41.3594943 55.7333333,38.6925439 55.7333333,35.9551403 C55.7333333,33.2177367 55.2185333,30.5507863 54.2666667,28.1920691 L54.2666667,43.7182115 L54.2666667,43.7182115 Z M54.2666667,22.3635276 C57.0592,25.9419673 58.6666667,30.848745 58.6666667,35.9551403 C58.6666667,41.0615356 57.0592,45.9683133 54.2666667,49.5452852 L54.2666667,52.1006846 L73.4814667,52.1006846 C74.0652,49.2297132 76.3312,46.9619981 79.2,46.377823 L79.2,25.5324576 C76.3312,24.9482825 74.0652,22.6805674 73.4814667,19.8095961 L54.2666667,19.8095961 L54.2666667,22.3635276 L54.2666667,22.3635276 Z M85.0666667,13.9384891 L54.2666667,13.9384891 L54.2666667,16.8740426 L74.8,16.8740426 C75.6110667,16.8740426 76.2666667,17.5301388 76.2666667,18.3418193 C76.2666667,20.769522 78.2408,22.7451496 80.6666667,22.7451496 C81.4777333,22.7451496 82.1333333,23.4012458 82.1333333,24.2129263 L82.1333333,47.6973543 C82.1333333,48.5090348 81.4777333,49.1651311 80.6666667,49.1651311 C78.2408,49.1651311 76.2666667,51.1407586 76.2666667,53.5684613 C76.2666667,54.3801418 75.6110667,55.0362381 74.8,55.0362381 L54.2666667,55.0362381 L54.2666667,57.9717916 L85.0666667,57.9717916 L85.0666667,13.9384891 L85.0666667,13.9384891 Z M85.0666667,60.9073451 L54.2666667,60.9073451 L54.2666667,63.8428986 L85.0666667,63.8428986 L85.0666667,60.9073451 L85.0666667,60.9073451 Z M85.0666667,66.7784521 L54.2666667,66.7784521 L54.2666667,69.7140056 L85.0666667,69.7140056 L85.0666667,66.7784521 L85.0666667,66.7784521 Z M85.0666667,72.6495591 L54.2666667,72.6495591 L54.2666667,75.5851126 L85.0666667,75.5851126 L85.0666667,72.6495591 L85.0666667,72.6495591 Z M68.9333333,40.3584706 C66.5074667,40.3584706 64.5333333,38.382843 64.5333333,35.9551403 C64.5333333,33.5274376 66.5074667,31.5518101 68.9333333,31.5518101 C71.3592,31.5518101 73.3333333,33.5274376 73.3333333,35.9551403 C73.3333333,38.382843 71.3592,40.3584706 68.9333333,40.3584706 L68.9333333,40.3584706 Z M68.9333333,34.4873636 C68.1237333,34.4873636 67.4666667,35.1449275 67.4666667,35.9551403 C67.4666667,36.7653531 68.1237333,37.4229171 68.9333333,37.4229171 C69.7429333,37.4229171 70.4,36.7653531 70.4,35.9551403 C70.4,35.1449275 69.7429333,34.4873636 68.9333333,34.4873636 L68.9333333,34.4873636 Z M19.0666667,31.5518101 C21.4925333,31.5518101 23.4666667,33.5274376 23.4666667,35.9551403 C23.4666667,38.382843 21.4925333,40.3584706 19.0666667,40.3584706 C16.6408,40.3584706 14.6666667,38.382843 14.6666667,35.9551403 C14.6666667,33.5274376 16.6408,31.5518101 19.0666667,31.5518101 L19.0666667,31.5518101 Z M19.0666667,37.4229171 C19.8762667,37.4229171 20.5333333,36.7653531 20.5333333,35.9551403 C20.5333333,35.1449275 19.8762667,34.4873636 19.0666667,34.4873636 C18.2570667,34.4873636 17.6,35.1449275 17.6,35.9551403 C17.6,36.7653531 18.2570667,37.4229171 19.0666667,37.4229171 L19.0666667,37.4229171 Z"></path>
            </g>
        </g>
    </g>
</svg>