<?xml version="1.0" encoding="UTF-8" standalone="no"?>
<svg width="88px" height="85px" viewBox="0 0 88 85" version="1.1" xmlns="http://www.w3.org/2000/svg" xmlns:xlink="http://www.w3.org/1999/xlink">
    <!-- Generator: Sketch 40.2 (33826) - http://www.bohemiancoding.com/sketch -->
    <title>outspendIcon</title>
    <desc>Created with Sketch.</desc>
    <defs></defs>
    <g id="Poligap" stroke="none" stroke-width="1" fill="none" fill-rule="evenodd">
        <g id="Home-04-768-Spec-@2x" transform="translate(-586.000000, -1044.000000)">
            <g id="outspendIcon" transform="translate(586.000000, 1044.000000)">
                <path d="M68.8793103,58.6206897 C68.0703448,58.6206897 67.4137931,57.9641379 67.4137931,57.1551724 C67.4137931,56.3462069 68.0703448,55.6896552 68.8793103,55.6896552 L85,55.6896552 L85,8.79310345 L57.1551724,8.79310345 C56.3462069,8.79310345 55.6896552,8.13655172 55.6896552,7.32758621 C55.6896552,6.51862069 56.3462069,5.86206897 57.1551724,5.86206897 L86.4655172,5.86206897 C87.2744828,5.86206897 87.9310345,6.51862069 87.9310345,7.32758621 L87.9310345,57.1551724 C87.9310345,57.9641379 87.2744828,58.6206897 86.4655172,58.6206897 L68.8793103,58.6206897 Z M64.1105172,38.1034483 L69.8103448,38.1034483 C70.6193103,38.1034483 71.2758621,38.76 71.2758621,39.5689655 L71.2758621,45.4310345 C71.2758621,46.24 70.6193103,46.8965517 69.8103448,46.8965517 L64.3743103,46.8965517 L61.5473276,83.6473276 C61.4887069,84.4108621 60.8512069,85 60.0862069,85 L27.8448276,85 C27.0783621,85 26.4423276,84.4108621 26.3837069,83.6473276 L23.5567241,46.8965517 L18.1206897,46.8965517 C17.3117241,46.8965517 16.6551724,46.24 16.6551724,45.4310345 L16.6551724,39.5689655 C16.6551724,38.76 17.3117241,38.1034483 18.1206897,38.1034483 L23.8864655,38.1034483 C23.7193966,35.5373276 23.7355172,32.6356034 23.9568103,29.5712069 C24.2264655,25.8517241 26.4276724,19.6511207 37.7282759,18.0112069 C35.6575,16.0928448 34.4396552,13.2966379 34.4396552,10.2571552 C34.4396552,4.60172414 38.7131034,0 43.9655172,0 C49.217931,0 53.4913793,4.60172414 53.4913793,10.2571552 C53.4913793,13.2893103 52.277931,16.0796552 50.2174138,17.9950862 C60.9699138,19.5016379 63.6708621,25.029569 63.9742241,29.5785345 C64.1940517,32.8612931 64.2321552,35.654569 64.1105172,38.1034483 Z M58.7276724,82.0689655 L61.4344828,46.8965517 L26.4965517,46.8965517 L29.2018966,82.0689655 L58.7276724,82.0689655 Z M24.9137931,43.9655172 L63.0172414,43.9655172 L68.3448276,43.9655172 L68.3448276,41.0344828 L62.5541379,41.0344828 L54.4381034,41.0344828 L33.4973276,41.0344828 L25.4677586,41.0344828 L19.5862069,41.0344828 L19.5862069,43.9655172 L24.9137931,43.9655172 Z M43.9655172,2.93103448 C40.329569,2.93103448 37.3706897,6.21818966 37.3706897,10.2571552 C37.3706897,13.0577586 38.847931,15.6531897 41.1356034,16.8666379 C41.6148276,17.1201724 41.9137931,17.6184483 41.9137931,18.1606897 L41.9137931,19.1894828 C41.9137931,19.9559483 41.3217241,20.5934483 40.5567241,20.6506034 C34.5862069,21.0946552 27.3685345,23.0393966 26.8805172,29.7822414 C26.6636207,32.7865517 26.6401724,35.6325862 26.8116379,38.1034483 L32.0831034,38.1034483 C32.1549138,36.0326724 32.2428448,33.915 32.3630172,31.7211207 C32.4084483,30.9136207 33.0972414,30.2834483 33.9076724,30.3391379 C34.7151724,30.3831034 35.3350862,31.0748276 35.2896552,31.8823276 C35.1738793,34.0131897 35.0815517,36.0883621 35.0112069,38.1034483 L52.9242241,38.1034483 C52.8509483,36.037069 52.7556897,33.9516379 52.6399138,31.8837931 C52.5959483,31.0748276 53.212931,30.3831034 54.0218966,30.3391379 C54.8264655,30.3068966 55.5225862,30.9121552 55.5665517,31.7196552 C55.6852586,33.8446552 55.7673276,35.9813793 55.842069,38.1034483 L61.1868103,38.1034483 C61.3113793,35.7425 61.2659483,33.0019828 61.0490517,29.7749138 C60.687069,24.3363793 56.0868103,21.2661207 47.3772414,20.6447414 C46.6122414,20.5905172 46.0172414,19.9530172 46.0172414,19.1836207 L46.0172414,18.1606897 C46.0172414,17.6184483 46.3162069,17.1201724 46.795431,16.8666379 C49.0831034,15.6531897 50.5603448,13.0577586 50.5603448,10.2571552 C50.5603448,6.21818966 47.6014655,2.93103448 43.9655172,2.93103448 Z M2.93103448,8.79310345 L2.93103448,55.6896552 L19.0517241,55.6896552 C19.8606897,55.6896552 20.5172414,56.3462069 20.5172414,57.1551724 C20.5172414,57.9641379 19.8606897,58.6206897 19.0517241,58.6206897 L1.46551724,58.6206897 C0.656551724,58.6206897 0,57.9641379 0,57.1551724 L0,7.32758621 C0,6.51862069 0.656551724,5.86206897 1.46551724,5.86206897 L30.7758621,5.86206897 C31.5848276,5.86206897 32.2413793,6.51862069 32.2413793,7.32758621 C32.2413793,8.13655172 31.5848276,8.79310345 30.7758621,8.79310345 L2.93103448,8.79310345 Z" id="Shape" fill="#B8C2CC"></path>
                <path d="M43.621875,65.6527778 C43.418375,65.5944444 38.5,64.1444444 38.5,59.9111111 C38.5,57.3569444 40.258625,55.2208333 42.623625,54.6055556 L42.623625,53.3888889 C42.623625,52.6208333 43.239625,52 44,52 C44.759,52 45.375,52.6208333 45.375,53.3888889 L45.375,54.6055556 C47.74,55.2208333 49.5,57.3555556 49.5,59.9111111 C49.5,60.6791667 48.884,61.3 48.125,61.3 C47.366,61.3 46.75,60.6791667 46.75,59.9111111 C46.75,58.4097222 45.516625,57.1875 44,57.1875 C42.483375,57.1875 41.25,58.4097222 41.25,59.9111111 C41.25,62.0402778 44.3465,62.9722222 44.378125,62.9805556 C44.581625,63.0388889 49.5,64.4888889 49.5,68.7222222 C49.5,71.2777778 47.74,73.4125 45.375,74.0277778 L45.375,75.6111111 C45.375,76.3791667 44.759,77 44,77 C43.239625,77 42.623625,76.3791667 42.623625,75.6111111 L42.623625,74.0263889 C40.258625,73.4111111 38.5,71.2763889 38.5,68.7222222 C38.5,67.9541667 39.116,67.3333333 39.875,67.3333333 C40.634,67.3333333 41.25,67.9541667 41.25,68.7222222 C41.25,70.2236111 42.483375,71.4444444 44,71.4444444 C45.516625,71.4444444 46.75,70.2236111 46.75,68.7222222 C46.75,66.5930556 43.6535,65.6611111 43.621875,65.6527778 L43.621875,65.6527778 Z" id="Path" fill="#B8C2CC"></path>
                <path d="M7.5,20 L7.5,31" id="Path-12" stroke="#B8C2CC" stroke-width="3" stroke-linecap="round"></path>
                <path d="M30,13.5 L14.5,13.5" id="Path-11" stroke="#B8C2CC" stroke-width="3" stroke-linecap="round"></path>
                <path d="M8,20.5322266 C8,20.5322266 15.0043945,21.713623 15.0043945,14" id="Path-13" stroke="#B8C2CC" stroke-width="3"></path>
                <path d="M7.5,30 L7.5,45" id="Path-12" stroke="#B8C2CC" stroke-width="3" stroke-linecap="round" transform="translate(7.500000, 37.500000) scale(1, -1) translate(-7.500000, -37.500000) "></path>
                <path d="M19,51.5 L14.5,51.5" id="Path-11" stroke="#B8C2CC" stroke-width="3" stroke-linecap="round" transform="translate(16.750000, 51.500000) scale(1, -1) translate(-16.750000, -51.500000) "></path>
                <path d="M8,50.9350417 C8,50.9350417 15.0043945,52.1164382 15.0043945,44.4028151" id="Path-13" stroke="#B8C2CC" stroke-width="3" transform="translate(11.502197, 47.701408) scale(1, -1) translate(-11.502197, -47.701408) "></path>
                <path d="M80.5,20 L80.5,31" id="Path-12" stroke="#B8C2CC" stroke-width="3" stroke-linecap="round" transform="translate(80.500000, 25.500000) scale(-1, 1) translate(-80.500000, -25.500000) "></path>
                <path d="M73.5,13.5 L58,13.5" id="Path-11" stroke="#B8C2CC" stroke-width="3" stroke-linecap="round" transform="translate(65.750000, 13.500000) scale(-1, 1) translate(-65.750000, -13.500000) "></path>
                <path d="M72.9956055,20.5322266 C72.9956055,20.5322266 80,21.713623 80,14" id="Path-13" stroke="#B8C2CC" stroke-width="3" transform="translate(76.497803, 17.298592) scale(-1, 1) translate(-76.497803, -17.298592) "></path>
                <path d="M80.5,30 L80.5,45" id="Path-12" stroke="#B8C2CC" stroke-width="3" stroke-linecap="round" transform="translate(80.500000, 37.500000) scale(-1, -1) translate(-80.500000, -37.500000) "></path>
                <path d="M73.5,51.5 L69,51.5" id="Path-11" stroke="#B8C2CC" stroke-width="3" stroke-linecap="round" transform="translate(71.250000, 51.500000) scale(-1, -1) translate(-71.250000, -51.500000) "></path>
                <path d="M72.9956055,50.9350417 C72.9956055,50.9350417 80,52.1164382 80,44.4028151" id="Path-13" stroke="#B8C2CC" stroke-width="3" transform="translate(76.497803, 47.701408) scale(-1, -1) translate(-76.497803, -47.701408) "></path>
            </g>
        </g>
    </g>
</svg>