<?xml version="1.0" encoding="UTF-8" standalone="no"?>
<svg width="32px" height="32px" viewBox="0 0 32 32" version="1.1" xmlns="http://www.w3.org/2000/svg" xmlns:xlink="http://www.w3.org/1999/xlink">
    <!-- Generator: Sketch 40.2 (33826) - http://www.bohemiancoding.com/sketch -->
    <title>twitterIcon</title>
    <desc>Created with Sketch.</desc>
    <defs></defs>
    <g id="Poligap" stroke="none" stroke-width="1" fill="none" fill-rule="evenodd">
        <g id="Home-04-768-Spec-@2x" transform="translate(-518.000000, -2107.000000)" fill="#FFFFFF">
            <path d="M550,2123.00005 C550,2131.83608 542.836425,2139.0001 534.00095,2139.0001 C525.163475,2139.0001 517.9999,2131.83608 517.9999,2123.00005 C517.9999,2114.16269 525.163475,2107 534.00095,2107 C542.836425,2107 550,2114.16269 550,2123.00005 Z M543.448322,2116.09496 C542.655703,2116.5583 541.776422,2116.89496 540.84181,2117.0763 C540.094521,2116.29096 539.027918,2115.80029 537.847322,2115.80029 C535.581456,2115.80029 533.744232,2117.60897 533.744232,2119.83964 C533.744232,2120.15631 533.780896,2120.46364 533.850226,2120.75964 C530.439761,2120.59164 527.416608,2118.98364 525.392728,2116.53963 C525.040082,2117.13563 524.836761,2117.82963 524.836761,2118.5703 C524.836761,2119.97097 525.562718,2121.20764 526.662652,2121.93165 C525.991359,2121.91098 525.357396,2121.72965 524.804096,2121.42698 L524.804096,2121.47765 C524.804096,2123.43432 526.218679,2125.06699 528.096567,2125.43899 C527.751254,2125.53099 527.389276,2125.58032 527.014631,2125.58032 C526.74998,2125.58032 526.493329,2125.55432 526.242011,2125.50832 C526.76598,2127.11233 528.27989,2128.28033 530.075116,2128.313 C528.670533,2129.39634 526.902638,2130.04234 524.978752,2130.04234 C524.646772,2130.04234 524.321458,2130.02301 523.999477,2129.98567 C525.816703,2131.13168 527.973908,2131.80034 530.290437,2131.80034 C537.837989,2131.80034 541.963744,2125.64566 541.963744,2120.30764 C541.963744,2120.13297 541.961744,2119.95764 541.953744,2119.78497 C542.754364,2119.2163 543.450989,2118.5043 544.00029,2117.69363 C543.265,2118.01563 542.47438,2118.2323 541.643763,2118.32964 C542.491046,2117.8303 543.141007,2117.03896 543.448322,2116.09496 Z" id="twitterIcon"></path>
        </g>
    </g>
</svg>