<?xml version="1.0" encoding="UTF-8" standalone="no"?>
<svg width="88px" height="70px" viewBox="0 0 88 70" version="1.1" xmlns="http://www.w3.org/2000/svg" xmlns:xlink="http://www.w3.org/1999/xlink">
    <!-- Generator: Sketch 40.2 (33826) - http://www.bohemiancoding.com/sketch -->
    <title>vote</title>
    <desc>Created with Sketch.</desc>
    <defs></defs>
    <g id="Poligap" stroke="none" stroke-width="1" fill="none" fill-rule="evenodd">
        <g id="Home-04-768-Spec-@2x" transform="translate(-881.000000, -1062.000000)">
            <g id="Group-8" transform="translate(246.000000, 1040.000000)">
                <g id="vote" transform="translate(634.000000, 4.000000)">
                    <g id="Layer_1">
                        <path d="M37.0923258,80.0866903 C36.5710855,80.0866903 36.046997,79.9926962 35.5442708,79.8025717 L24.6295573,75.6817831 C22.3736979,74.8301392 21.2301025,72.3008423 22.0817464,70.0442708 L24.6509197,63.2396647 C24.9329021,62.4955445 25.7560629,62.1152954 26.5094402,62.3830364 L42.9769289,68.311788 C43.3443605,68.4442343 43.6434327,68.7183839 43.8072104,69.0729982 C43.9709881,69.4283245 43.9852296,69.8334963 43.8470868,70.1987917 L41.1824954,77.2554731 C40.7709149,78.348511 39.9562991,79.2158206 38.8910321,79.6971845 C38.3156738,79.9563802 37.7047119,80.0866903 37.0923258,80.0866903 L37.0923258,80.0866903 Z M26.8725992,65.6137289 L24.8104247,71.0739339 C24.5270182,71.8258871 24.9086913,72.668986 25.6606445,72.9531046 L36.575358,77.0738932 C36.9385171,77.2120362 37.3387044,77.1985066 37.6904702,77.0390014 C38.0450846,76.8787841 38.3170979,76.5896809 38.4538166,76.2258097 L40.5957437,70.5541177 L26.8725992,65.6137289 L26.8725992,65.6137289 Z" id="Shape" fill="#B8C2CC"></path>
                        <path d="M81.2083333,85.0833333 C81.0417074,85.0833333 80.8750814,85.0548503 80.714152,84.9971721 L7.79748533,58.7471721 C7.21927892,58.5385336 6.83333333,57.9902344 6.83333333,57.375 L6.83333333,48.625 C6.83333333,48.0097656 7.21927892,47.4614664 7.79748533,47.2528279 L80.714152,21.0028279 C81.1613362,20.8433227 81.6583658,20.9088338 82.0471598,21.1815592 C82.4359538,21.4549967 82.6666667,21.9000448 82.6666667,22.375 L82.6666667,83.625 C82.6666667,84.0999553 82.4359538,84.5450033 82.0471598,84.8184408 C81.797933,84.9928996 81.5045573,85.0833333 81.2083333,85.0833333 L81.2083333,85.0833333 Z M9.75,56.3503215 L79.75,81.5500082 L79.75,24.4499919 L9.75,49.6496785 L9.75,56.3503215 L9.75,56.3503215 Z" id="Shape" fill="#B8C2CC"></path>
                        <path d="M84.125,88 C81.7124837,88 79.75,86.0375163 79.75,83.625 L79.75,22.375 C79.75,19.9624837 81.7124837,18 84.125,18 C86.5375163,18 88.5,19.9624837 88.5,22.375 L88.5,83.625 C88.5,86.0375163 86.5375163,88 84.125,88 L84.125,88 Z M84.125,20.9166667 C83.3203532,20.9166667 82.6666667,21.5710653 82.6666667,22.375 L82.6666667,83.625 C82.6666667,84.4289347 83.3203532,85.0833333 84.125,85.0833333 C84.9296468,85.0833333 85.5833333,84.4289347 85.5833333,83.625 L85.5833333,22.375 C85.5833333,21.5710653 84.9296468,20.9166667 84.125,20.9166667 L84.125,20.9166667 Z" id="Shape" fill="#B8C2CC"></path>
                        <path d="M2.45833333,48.625 L2.45833333,57.375 C2.45833333,58.9858735 3.76411392,60.2916667 5.375,60.2916667 L5.375,60.2916667 C6.98586377,60.2916667 8.29166667,58.9858735 8.29166667,57.375 L8.29166667,48.625 C8.29166667,47.0141237 6.98586377,45.7083333 5.375,45.7083333 L5.375,45.7083333 C3.76411392,45.7083333 2.45833333,47.0141237 2.45833333,48.625 L2.45833333,48.625 Z" id="Shape"></path>
                        <path d="M5.375,61.75 C2.96248369,61.75 1,59.7875163 1,57.375 L1,48.625 C1,46.2124837 2.96248369,44.25 5.375,44.25 C7.78751631,44.25 9.75,46.2124837 9.75,48.625 L9.75,57.375 C9.75,59.7875163 7.78751631,61.75 5.375,61.75 L5.375,61.75 Z M5.375,47.1666667 C4.57035321,47.1666667 3.91666667,47.8210653 3.91666667,48.625 L3.91666667,57.375 C3.91666667,58.1789347 4.57035321,58.8333333 5.375,58.8333333 C6.17964679,58.8333333 6.83333333,58.1789347 6.83333333,57.375 L6.83333333,48.625 C6.83333333,47.8210653 6.17964679,47.1666667 5.375,47.1666667 L5.375,47.1666667 Z" id="Shape" fill="#B8C2CC"></path>
                    </g>
                </g>
            </g>
        </g>
    </g>
</svg>