<?xml version="1.0" encoding="UTF-8" standalone="no"?>
<svg width="32px" height="32px" viewBox="0 0 32 32" version="1.1" xmlns="http://www.w3.org/2000/svg" xmlns:xlink="http://www.w3.org/1999/xlink">
    <!-- Generator: Sketch 40.2 (33826) - http://www.bohemiancoding.com/sketch -->
    <title>youtubeIcon</title>
    <desc>Created with Sketch.</desc>
    <defs></defs>
    <g id="Poligap" stroke="none" stroke-width="1" fill="none" fill-rule="evenodd">
        <g id="Home-04-768-Spec-@2x" transform="translate(-710.000000, -2107.000000)" fill="#FFFFFF">
            <g id="youtubeIcon" transform="translate(710.000000, 2107.000000)">
                <path d="M32,16 C32,24.836 24.836,32 16.0006667,32 C7.164,32 0,24.836 0,16 C0,7.16266667 7.164,0 16.0006667,0 C24.836,0 32,7.16266667 32,16 Z M25.7995333,11.8297333 C25.7995333,11.8297333 25.6042,10.3917333 25.0055333,9.75973333 C24.2448667,8.9304 23.3922,8.9244 23.0028667,8.87706667 C20.2015333,8.6664 16.0055333,8.6664 16.0055333,8.6664 L15.9962,8.6664 C15.9962,8.6664 11.7968667,8.6664 8.99886667,8.87706667 C8.6082,8.9244 7.7562,8.9304 6.99486667,9.75973333 C6.39553333,10.3917333 6.2002,11.8297333 6.2002,11.8297333 C6.2002,11.8297333 6.0002,13.5177333 6.0002,15.2050667 L6.0002,16.7864 C6.0002,18.4757333 6.2002,20.1637333 6.2002,20.1637333 C6.2002,20.1637333 6.39553333,21.5997333 6.99486667,22.2324 C7.7562,23.0630667 8.7562,23.0357333 9.2002,23.1230667 C10.8008667,23.2830667 16.0002,23.3330667 16.0002,23.3330667 C16.0002,23.3330667 20.2015333,23.3257333 23.0028667,23.1157333 C23.3922,23.0670667 24.2448667,23.0630667 25.0055333,22.2324 C25.6042,21.5997333 25.7995333,20.1637333 25.7995333,20.1637333 C25.7995333,20.1637333 26.0002,18.4757333 26.0002,16.7864 L26.0002,15.2050667 C26.0002,13.5177333 25.7995333,11.8297333 25.7995333,11.8297333 Z" id="Combined-Shape"></path>
                <polygon id="Path" points="13.9362 18.7050667 13.9348667 12.8457333 19.3388667 15.7864"></polygon>
            </g>
        </g>
    </g>
</svg>